<mxfile host="app.diagrams.net" modified="2023-04-19T11:54:32.206Z" agent="Mozilla/5.0 (Macintosh; Intel Mac OS X 10.15; rv:102.0) Gecko/20100101 Firefox/102.0" etag="0qaEArUe43djk25fejy5" version="21.2.0" type="github">
  <diagram name="Pagina-1" id="ievlpoDhovdDYqXapDQw">
    <mxGraphModel dx="1621" dy="810" grid="1" gridSize="10" guides="1" tooltips="1" connect="1" arrows="1" fold="1" page="1" pageScale="1" pageWidth="827" pageHeight="1169" math="0" shadow="0">
      <root>
        <mxCell id="0" />
        <mxCell id="1" parent="0" />
        <mxCell id="LVmwEmVgXFNYVado1Jsa-1" value="" style="ellipse;whiteSpace=wrap;html=1;" vertex="1" parent="1">
          <mxGeometry x="60" y="115" width="120" height="80" as="geometry" />
        </mxCell>
        <mxCell id="LVmwEmVgXFNYVado1Jsa-2" value="" style="endArrow=classic;html=1;rounded=0;" edge="1" parent="1">
          <mxGeometry width="50" height="50" relative="1" as="geometry">
            <mxPoint x="230" y="60" as="sourcePoint" />
            <mxPoint x="160" y="110" as="targetPoint" />
          </mxGeometry>
        </mxCell>
        <mxCell id="LVmwEmVgXFNYVado1Jsa-4" value="Start" style="text;html=1;strokeColor=none;fillColor=none;align=center;verticalAlign=middle;whiteSpace=wrap;rounded=0;" vertex="1" parent="1">
          <mxGeometry x="220" y="40" width="60" height="30" as="geometry" />
        </mxCell>
        <mxCell id="LVmwEmVgXFNYVado1Jsa-5" value="Beginscherm" style="text;html=1;strokeColor=none;fillColor=none;align=center;verticalAlign=middle;whiteSpace=wrap;rounded=0;" vertex="1" parent="1">
          <mxGeometry x="90" y="140" width="60" height="30" as="geometry" />
        </mxCell>
        <mxCell id="LVmwEmVgXFNYVado1Jsa-6" value="" style="ellipse;whiteSpace=wrap;html=1;" vertex="1" parent="1">
          <mxGeometry x="60" y="240" width="120" height="80" as="geometry" />
        </mxCell>
        <mxCell id="LVmwEmVgXFNYVado1Jsa-7" value="" style="ellipse;whiteSpace=wrap;html=1;" vertex="1" parent="1">
          <mxGeometry x="60" y="370" width="120" height="80" as="geometry" />
        </mxCell>
        <mxCell id="LVmwEmVgXFNYVado1Jsa-8" value="" style="ellipse;whiteSpace=wrap;html=1;" vertex="1" parent="1">
          <mxGeometry x="250" y="240" width="120" height="80" as="geometry" />
        </mxCell>
        <mxCell id="LVmwEmVgXFNYVado1Jsa-11" value="" style="endArrow=classic;html=1;rounded=0;" edge="1" parent="1">
          <mxGeometry width="50" height="50" relative="1" as="geometry">
            <mxPoint x="119.5" y="200" as="sourcePoint" />
            <mxPoint x="119.5" y="230" as="targetPoint" />
          </mxGeometry>
        </mxCell>
        <mxCell id="LVmwEmVgXFNYVado1Jsa-12" value="Gele knop" style="text;html=1;strokeColor=none;fillColor=none;align=center;verticalAlign=middle;whiteSpace=wrap;rounded=0;" vertex="1" parent="1">
          <mxGeometry x="50" y="195" width="60" height="30" as="geometry" />
        </mxCell>
        <mxCell id="LVmwEmVgXFNYVado1Jsa-13" value="Spelen" style="text;html=1;strokeColor=none;fillColor=none;align=center;verticalAlign=middle;whiteSpace=wrap;rounded=0;" vertex="1" parent="1">
          <mxGeometry x="90" y="265" width="60" height="30" as="geometry" />
        </mxCell>
        <mxCell id="LVmwEmVgXFNYVado1Jsa-14" value="" style="endArrow=classic;html=1;rounded=0;" edge="1" parent="1">
          <mxGeometry width="50" height="50" relative="1" as="geometry">
            <mxPoint x="120" y="330" as="sourcePoint" />
            <mxPoint x="120" y="360" as="targetPoint" />
          </mxGeometry>
        </mxCell>
        <mxCell id="LVmwEmVgXFNYVado1Jsa-15" value="Blok raakt&amp;nbsp; finish" style="text;html=1;strokeColor=none;fillColor=none;align=center;verticalAlign=middle;whiteSpace=wrap;rounded=0;" vertex="1" parent="1">
          <mxGeometry x="50" y="330" width="60" height="30" as="geometry" />
        </mxCell>
        <mxCell id="LVmwEmVgXFNYVado1Jsa-18" value="Endscreen" style="text;html=1;strokeColor=none;fillColor=none;align=center;verticalAlign=middle;whiteSpace=wrap;rounded=0;" vertex="1" parent="1">
          <mxGeometry x="90" y="395" width="60" height="30" as="geometry" />
        </mxCell>
        <mxCell id="LVmwEmVgXFNYVado1Jsa-19" value="" style="curved=1;endArrow=classic;html=1;rounded=0;" edge="1" parent="1">
          <mxGeometry width="50" height="50" relative="1" as="geometry">
            <mxPoint x="50" y="400" as="sourcePoint" />
            <mxPoint x="50" y="170" as="targetPoint" />
            <Array as="points">
              <mxPoint x="30" y="380" />
              <mxPoint x="-90" y="400" />
              <mxPoint x="-160" y="260" />
              <mxPoint x="-20" y="370" />
              <mxPoint x="-10" y="220" />
            </Array>
          </mxGeometry>
        </mxCell>
        <mxCell id="LVmwEmVgXFNYVado1Jsa-21" value="Druk op een knop" style="text;html=1;strokeColor=none;fillColor=none;align=center;verticalAlign=middle;whiteSpace=wrap;rounded=0;" vertex="1" parent="1">
          <mxGeometry x="-70" y="350" width="60" height="30" as="geometry" />
        </mxCell>
        <mxCell id="LVmwEmVgXFNYVado1Jsa-22" value="" style="endArrow=classic;html=1;rounded=0;" edge="1" parent="1">
          <mxGeometry width="50" height="50" relative="1" as="geometry">
            <mxPoint x="190" y="279.5" as="sourcePoint" />
            <mxPoint x="230" y="279.5" as="targetPoint" />
          </mxGeometry>
        </mxCell>
        <mxCell id="LVmwEmVgXFNYVado1Jsa-25" value="&lt;div&gt;Blok raakt&lt;/div&gt;&lt;div&gt;spike&lt;br&gt;&lt;/div&gt;" style="text;html=1;strokeColor=none;fillColor=none;align=center;verticalAlign=middle;whiteSpace=wrap;rounded=0;" vertex="1" parent="1">
          <mxGeometry x="180" y="290" width="60" height="30" as="geometry" />
        </mxCell>
        <mxCell id="LVmwEmVgXFNYVado1Jsa-27" value="Game over screen" style="text;html=1;strokeColor=none;fillColor=none;align=center;verticalAlign=middle;whiteSpace=wrap;rounded=0;" vertex="1" parent="1">
          <mxGeometry x="270" y="265" width="80" height="30" as="geometry" />
        </mxCell>
        <mxCell id="LVmwEmVgXFNYVado1Jsa-30" style="edgeStyle=orthogonalEdgeStyle;rounded=0;orthogonalLoop=1;jettySize=auto;html=1;exitX=0.5;exitY=1;exitDx=0;exitDy=0;" edge="1" parent="1" source="LVmwEmVgXFNYVado1Jsa-15" target="LVmwEmVgXFNYVado1Jsa-15">
          <mxGeometry relative="1" as="geometry" />
        </mxCell>
        <mxCell id="LVmwEmVgXFNYVado1Jsa-32" value="" style="curved=1;endArrow=classic;html=1;rounded=0;" edge="1" parent="1">
          <mxGeometry width="50" height="50" relative="1" as="geometry">
            <mxPoint x="250" y="245" as="sourcePoint" />
            <mxPoint x="170" y="245" as="targetPoint" />
            <Array as="points">
              <mxPoint x="250" y="245" />
              <mxPoint x="210" y="195" />
            </Array>
          </mxGeometry>
        </mxCell>
        <mxCell id="LVmwEmVgXFNYVado1Jsa-34" value="Gele knop" style="text;html=1;strokeColor=none;fillColor=none;align=center;verticalAlign=middle;whiteSpace=wrap;rounded=0;" vertex="1" parent="1">
          <mxGeometry x="180" y="230" width="60" height="30" as="geometry" />
        </mxCell>
        <mxCell id="LVmwEmVgXFNYVado1Jsa-38" value="" style="curved=1;endArrow=classic;html=1;rounded=0;" edge="1" parent="1">
          <mxGeometry width="50" height="50" relative="1" as="geometry">
            <mxPoint x="310" y="230" as="sourcePoint" />
            <mxPoint x="190" y="160" as="targetPoint" />
            <Array as="points">
              <mxPoint x="320" y="200" />
              <mxPoint x="290" y="180" />
            </Array>
          </mxGeometry>
        </mxCell>
        <mxCell id="LVmwEmVgXFNYVado1Jsa-40" value="Groene knop" style="text;html=1;strokeColor=none;fillColor=none;align=center;verticalAlign=middle;whiteSpace=wrap;rounded=0;" vertex="1" parent="1">
          <mxGeometry x="250" y="150" width="60" height="30" as="geometry" />
        </mxCell>
        <mxCell id="LVmwEmVgXFNYVado1Jsa-41" value="" style="ellipse;whiteSpace=wrap;html=1;" vertex="1" parent="1">
          <mxGeometry x="-140" y="15" width="120" height="80" as="geometry" />
        </mxCell>
        <mxCell id="LVmwEmVgXFNYVado1Jsa-47" value="" style="endArrow=classic;startArrow=classic;html=1;rounded=0;" edge="1" parent="1">
          <mxGeometry width="50" height="50" relative="1" as="geometry">
            <mxPoint x="-10" y="90" as="sourcePoint" />
            <mxPoint x="50" y="130" as="targetPoint" />
          </mxGeometry>
        </mxCell>
        <mxCell id="LVmwEmVgXFNYVado1Jsa-48" value="Blauwe knop" style="text;html=1;strokeColor=none;fillColor=none;align=center;verticalAlign=middle;whiteSpace=wrap;rounded=0;" vertex="1" parent="1">
          <mxGeometry x="10" y="80" width="60" height="30" as="geometry" />
        </mxCell>
        <mxCell id="LVmwEmVgXFNYVado1Jsa-49" value="Uitleg" style="text;html=1;strokeColor=none;fillColor=none;align=center;verticalAlign=middle;whiteSpace=wrap;rounded=0;" vertex="1" parent="1">
          <mxGeometry x="-110" y="40" width="60" height="30" as="geometry" />
        </mxCell>
      </root>
    </mxGraphModel>
  </diagram>
</mxfile>
